<svg xmlns="http://www.w3.org/2000/svg" width="88" height="60" viewBox="0 0 88 60">
  <defs>
    <filter id="a" width="122.1%" height="175.1%" x="-11.1%" y="-37.6%" filterUnits="objectBoundingBox">
      <feGaussianBlur in="SourceGraphic" stdDeviation="2.857"/>
    </filter>
  </defs>
  <g fill="none" fill-rule="evenodd" transform="translate(5 16)">
    <path fill="#000000" fill-opacity=".1" fill-rule="nonzero" d="M38.743,36.825 C60.14,36.825 77.486,31.715 77.486,25.413 C77.486,19.11 60.14,14 38.743,14 C17.346,14 0,19.11 0,25.413 C0,31.716 17.346,36.825 38.743,36.825 Z" filter="url(#a)"/>
    <g transform="translate(7)">
      <polygon fill="#CB3837" points="0 0 66 0 66 23.143 33 23.143 33 27 18.333 27 18.333 23.143 0 23.143"/>
      <g fill="#FFFFFF" transform="translate(3 3)">
        <polygon points="37.451 .319 37.451 15.008 44.902 15.008 44.902 3.992 48.627 3.992 48.627 15.008 52.353 15.008 52.353 3.992 56.078 3.992 56.078 15.008 59.804 15.008 59.804 .319"/>
        <path d="M18.8235294,0.319327731 L33.7254902,0.319327731 L33.7254902,15.0084034 L26.2745098,15.0084034 L26.2745098,18.6806723 L18.8235294,18.6806723 L18.8235294,0.319327731 Z M26.2745098,3.99159664 L26.2745098,11.3361345 L30,11.3361345 L30,3.99159664 L26.2745098,3.99159664 Z"/>
        <polygon points=".196 15.008 7.647 15.008 7.647 3.992 11.373 3.992 11.373 15.008 15.098 15.008 15.098 .319 .196 .319"/>
      </g>
    </g>
  </g>
</svg>
