<?xml version="1.0" encoding="UTF-8"?>
<svg width="88px" height="60px" viewBox="0 0 88 60" version="1.1" xmlns="http://www.w3.org/2000/svg" xmlns:xlink="http://www.w3.org/1999/xlink">
    <!-- Generator: Sketch 50 (54983) - http://www.bohemiancoding.com/sketch -->
    <title>sass</title>
    <desc>Created with Sketch.</desc>
    <defs>
        <filter x="-21.3%" y="-16.2%" width="142.6%" height="157.5%" filterUnits="objectBoundingBox" id="filter-1">
            <feOffset dx="0" dy="5" in="SourceAlpha" result="shadowOffsetOuter1"></feOffset>
            <feGaussianBlur stdDeviation="3" in="shadowOffsetOuter1" result="shadowBlurOuter1"></feGaussianBlur>
            <feColorMatrix values="0 0 0 0 0   0 0 0 0 0   0 0 0 0 0  0 0 0 0.246376812 0" type="matrix" in="shadowBlurOuter1" result="shadowMatrixOuter1"></feColorMatrix>
            <feMerge>
                <feMergeNode in="shadowMatrixOuter1"></feMergeNode>
                <feMergeNode in="SourceGraphic"></feMergeNode>
            </feMerge>
        </filter>
    </defs>
    <g id="Page-1" stroke="none" stroke-width="1" fill="none" fill-rule="evenodd">
        <g id="Artboard-Copy" transform="translate(-155.000000, -103.000000)" fill="#CC6699" fill-rule="nonzero">
            <g id="sass" filter="url(#filter-1)" transform="translate(172.000000, 112.000000)">
                <g id="Group" transform="translate(0.679024, 0.620555)">
                    <path d="M48.4060849,22.9781826 C46.3652512,22.1747438 43.5358571,22.5690239 41.5594968,23.4046995 C41.2284502,23.5448053 40.9643569,23.6105187 40.9643569,23.6105187 C40.9643569,23.6105187 40.5626375,23.0066997 40.4436095,22.7674039 C40.1857156,22.2590553 39.9674976,21.7308686 39.8360709,21.1778845 C39.6042144,20.1983835 39.6662081,18.9299917 40.0307313,17.9951261 C40.1299212,17.7471512 40.5762761,17.0627403 40.2687872,16.8333635 C39.9811363,16.6201051 39.518663,16.5953076 39.1752177,16.5692702 C38.7710186,16.5395132 38.3321029,16.5258746 37.935343,16.6312639 C37.1666207,16.8370831 37.1790194,17.1768088 36.9608015,17.867419 C36.2044779,20.2479785 34.7860612,22.3024509 33.600741,24.4833905 C32.8754143,24.270132 32.6981122,22.2181394 32.7018318,21.6539964 C32.7018318,21.034059 32.8059813,20.4141217 32.9845233,19.8189818 C33.1023114,19.4296612 33.3130901,18.975867 33.2634951,18.560509 C33.1915824,17.9529704 31.9244304,18.0819174 31.5301502,18.1178737 C30.7118329,18.1922662 30.2778768,18.3162537 29.9840265,19.1630881 C28.5829681,23.2323569 25.0493251,30.3591567 24.6860418,30.485624 C24.2173692,29.4838052 25.3803717,26.002237 25.6209074,25.3252654 C25.7820911,24.8689915 26.2011687,24.0519141 26.0523838,23.558444 C25.7920101,22.6843323 24.8645838,23.0959707 24.2607648,23.1889613 C24.3649143,22.4512358 24.5136992,21.5076912 24.1714938,20.8084018 C23.1795941,18.7812067 19.7389417,20.9162709 18.8648301,22.0904323 C18.5970171,22.4524757 18.2771295,22.8343571 17.7861391,23.2149987 C16.8413545,23.9465247 12.7522477,25.7728602 12.7522477,25.7728602 C12.7522477,25.7728602 11.0957751,24.1957396 10.493196,23.6985498 L10.344411,23.5770421 C9.48269813,22.8913914 8.50939648,22.3297281 7.64396393,21.5932425 C6.75745351,20.8393987 5.91061908,20.0099225 5.32539822,19.0019044 C3.98013416,16.6833387 4.9931118,14.7193771 6.20942889,12.6537459 C6.66818253,11.8788242 7.16041279,11.6246499 7.58940944,11.079105 C7.89937812,10.6885444 8.64702257,10.0748065 9.17396932,9.70284405 C11.2941551,8.20259565 13.5048517,6.98379881 15.7453053,5.91874644 C17.08437,5.28393058 18.489148,4.7929402 19.9063248,4.3614638 C21.2032338,3.96718364 22.4728655,3.87791266 23.7958118,3.7043302 C25.8254867,3.43651726 28.8346626,3.68449221 30.2307615,5.36204269 C31.7868043,7.22681426 30.1352912,9.97685637 28.8545006,11.5192605 C27.4100466,13.2612845 25.416328,14.4540439 23.3122607,15.2884796 C21.0246918,16.1935882 18.3738397,16.8606408 15.9151681,16.2593015 C15.282832,16.1030773 14.7025707,15.8526226 14.1396675,15.5327349 C13.8817736,15.3864297 13.1936431,14.6524239 13.0089018,14.7144176 C12.4435189,14.9053583 13.3684655,16.4899182 13.7478671,16.4899182 C13.7478671,16.7676502 14.4868325,17.0949771 14.8054803,17.3243539 C15.3014301,17.6801979 15.8779719,17.8141044 16.470632,17.9380919 C17.7129865,18.1984656 18.9912973,18.2269827 20.2621689,18.0992756 C25.4944401,17.5748086 30.3795465,14.1812715 31.7384492,12.1763941 C32.0806546,11.673005 32.432779,11.168376 32.7030717,10.6228311 C33.2064608,9.61605282 33.4965915,8.50016558 33.5647846,7.38303847 C33.7110899,5.00991827 32.7464673,3.00008137 30.5556087,1.90279225 C30.0100638,1.62754006 29.4397215,1.40436261 28.8693791,1.19606366 C26.5284957,0.334350737 22.7121613,0.390145099 20.1580194,1.0373597 C18.8536712,1.36840625 17.6323946,1.76144653 16.3578034,2.23755842 C12.2860548,3.76260431 8.03452446,5.91378694 5.03030804,8.78037727 C3.73339909,10.0177722 2.47864588,11.5514972 1.64545008,13.1224185 C0.525843212,15.225246 0.53824196,17.303276 1.8748269,19.3019541 C3.1494181,21.2088814 5.12701827,22.7736033 7.05378357,23.9688425 C7.53361508,24.2664124 8.06800108,24.6681318 8.53543385,25.022736 C8.92847413,25.3203059 9.47153925,25.5980379 9.7877073,25.9080065 C10.0319626,26.1473023 10.9197129,26.7387226 10.9197129,26.7387226 C10.9197129,26.7387226 9.32771379,27.7219432 8.90739626,27.9290023 C8.44492299,28.1583791 5.88706146,30.0330697 5.02410866,30.6666457 C3.45194753,31.8197292 2.18479558,33.7960894 2.53691999,35.879079 C2.89648366,38.0141432 4.76001535,39.4995131 7.96013198,38.6811958 C10.3183737,38.0786167 11.800024,36.769309 13.1924033,35.0520825 C14.134708,33.8903199 14.7856423,31.5221592 14.4570755,29.971076 C14.4570755,29.2172321 14.3950817,28.6382106 14.1223093,27.9302422 C14.0107206,27.645071 13.7652254,27.2173142 14.0665149,26.9879374 C14.4508761,26.6965668 14.976583,26.5043863 15.3907011,26.2316138 C15.6919907,26.0332339 16.3627629,25.537284 16.7173671,25.537284 C16.7049683,26.141103 16.4631927,26.8230341 16.3429249,27.4218936 C16.1904203,28.1819367 16.1519842,28.8688273 16.1519842,29.6487085 C16.1519842,30.9542966 16.569822,32.7446757 17.5431236,33.7092982 C18.5561013,34.7135967 19.9707983,34.1308556 20.5684179,33.2555041 C20.9564987,32.6913611 21.1957945,31.969754 21.5293208,31.3671749 C21.814492,30.8489073 21.9657567,30.0987831 22.3265603,29.6499484 C22.4815446,30.1136615 22.3302799,30.7335989 22.338959,31.2221095 C22.3600369,32.4867817 22.9464976,33.4960398 23.4585659,33.5282765 C24.8013502,33.5406753 25.4423654,32.3479158 25.9953495,31.3386578 C26.8508631,29.772696 27.7398532,28.2302919 28.5370927,26.6320934 C28.9338526,25.8311343 29.2016655,25.0475335 29.5860267,24.2515339 C29.8426808,23.7183878 30.0199828,22.9496655 30.3919453,22.4909118 C30.9102129,23.8299765 31.1061131,25.2347546 31.8264803,26.5006666 C32.186044,27.1280432 31.3702064,27.5818374 31.0032035,28.0790271 C30.5345308,28.7150829 29.9803068,29.2817056 29.4583196,29.8768455 C28.7987063,30.6232501 27.6890184,31.6411872 28.5333731,32.5611742 C29.1905067,33.2803016 31.2610974,32.5772926 32.0099818,32.2450062 C34.2963107,31.2283089 35.3997992,29.1205219 34.6013199,26.7188846 C34.5393262,26.5329034 34.4574944,26.3221247 34.30375,26.1857385 C34.8864911,25.1690412 35.5684222,24.1895402 35.9131073,23.5782819 C36.232995,23.0104193 37.2211752,20.9671058 37.4629507,20.9671058 C37.6241344,21.7420275 38.1027261,23.1654037 38.7846572,24.6619324 C37.5447825,25.6501126 35.9552631,28.4931453 35.9552631,29.1874751 C35.7097679,30.0516678 35.9726213,31.2283089 37.1356238,31.1650753 C38.1498413,31.1092809 39.8137532,30.3008826 40.5043634,29.5606774 C40.9048429,29.1316808 41.6115715,28.574977 41.8397085,27.7405414 C42.0070915,27.1330027 41.9165807,26.4709096 41.7628362,25.8683305 C41.62645,25.338904 41.2792851,25.0413341 41.8694655,24.7983187 C42.8092905,24.4114778 43.8569846,24.2825308 44.8699623,24.2614529 C47.0868582,24.2168174 49.4984146,24.6247362 50.949068,26.4151153 C51.4995723,27.0945666 51.9744444,27.9587593 51.8442575,28.8948647 C51.7723448,29.3994937 51.4264197,29.941319 51.0829744,30.3083219 C50.7816849,30.6306893 50.1704266,30.7397983 50.0042834,31.1725146 C49.8641776,31.1725146 50.3167319,31.3547761 50.5250308,31.306421 C50.7333298,31.256826 50.9131116,31.1452373 51.0916536,31.0336486 C51.463616,30.791873 51.730189,30.7063217 52.0116406,30.386434 C52.7233287,29.5805154 53.037017,28.3356812 52.8175592,27.299146 C52.3426871,25.0698512 50.4989934,23.7940201 48.4036052,22.9719832 L48.4060849,22.9781826 Z M12.2265409,31.5915922 C11.8917747,32.5462957 11.3809463,33.4390055 10.6642987,34.1680519 C10.0245234,34.8177462 9.22976368,35.3893284 8.37920963,35.7426927 C5.98005207,36.7308729 4.79845147,35.5170355 5.82506773,33.5357158 C6.33713598,32.5512552 6.97195184,31.6225891 7.80142802,30.8637857 C8.55155222,30.178135 9.32647391,29.8396492 10.0369221,29.2965841 C10.6444607,28.8353507 12.3331701,27.9947157 12.3331701,27.9947157 C12.3331701,27.9947157 12.6555375,30.3678359 12.2265409,31.5928321 L12.2265409,31.5915922 Z M21.8107724,26.8031961 C21.3272212,27.9934758 20.5126236,30.158297 19.8108545,30.8402281 C19.5653593,31.0782841 19.4450914,31.3237793 19.1537209,30.9815738 C19.0049359,30.8055116 18.9243441,30.5724152 18.8685497,30.3529574 C18.4742695,28.8068336 18.8251541,26.9953767 19.4674092,25.5856391 C21.4908847,21.1468876 22.9415381,22.0371177 22.9415381,22.0371177 C23.0184103,23.1381264 22.2224108,25.7964178 21.8132521,26.8031961 L21.8107724,26.8031961 Z M30.1551292,31.1799538 C30.2729173,30.7583964 30.9610477,30.257487 31.2524183,29.9301601 C31.7285302,29.397014 32.2517573,28.892385 32.6088412,28.2712077 C33.3329281,28.6258119 31.1408296,31.5159598 30.1576089,31.1811937 L30.1551292,31.1799538 Z M39.0177536,28.7522791 C38.6991058,29.1143225 37.4083962,30.0169513 37.5571812,29.059768 C37.6662902,28.3530395 38.1250438,27.7517002 38.5019657,27.1627597 C38.7375419,26.7957568 39.35004,26.2626107 39.35004,26.0543117 C39.4368313,26.041913 39.5161833,26.012156 39.5856162,25.962561 C39.9389805,26.9098253 39.6823265,27.9959555 39.0177536,28.7522791 Z" id="Shape"></path>
                </g>
            </g>
        </g>
    </g>
</svg>