<?xml version="1.0" encoding="UTF-8"?>
<svg width="736px" height="108px" viewBox="0 0 736 108" version="1.1" xmlns="http://www.w3.org/2000/svg" xmlns:xlink="http://www.w3.org/1999/xlink">
    <!-- Generator: Sketch 51.3 (57544) - http://www.bohemiancoding.com/sketch -->
    <title>DrewHarperGrovvyHead</title>
    <desc>Created with Sketch.</desc>
    <defs></defs>
    <g id="DrewHarperGrovvyHead" stroke="none" stroke-width="1" fill="none" fill-rule="evenodd">
        <path d="M58.76,75.53 C58.76,79.863355 58.0233407,83.8499818 56.55,87.49 C55.0766593,91.1300182 53.040013,94.2716535 50.44,96.915 C47.839987,99.5583466 44.7850175,101.638326 41.275,103.155 C37.7649824,104.671674 33.9300208,105.43 29.77,105.43 L0,105.43 L0,1.82 L29.77,1.82 C33.9300208,1.82 37.7649824,2.57832575 41.275,4.095 C44.7850175,5.61167425 47.839987,7.69165345 50.44,10.335 C53.040013,12.9783465 55.0766593,16.1416483 56.55,19.825 C58.0233407,23.5083518 58.76,27.4733121 58.76,31.72 L58.76,75.53 Z M2.86,102.44 L28.99,102.44 C32.8033524,102.44 36.3566502,101.76834 39.65,100.425 C42.9433498,99.08166 45.7816548,97.2183452 48.165,94.835 C50.5483453,92.4516548 52.4333264,89.6783492 53.82,86.515 C55.2066736,83.3516509 55.9,79.9500182 55.9,76.31 L55.9,30.94 C55.9,27.2999818 55.2066736,23.8983492 53.82,20.735 C52.4333264,17.5716508 50.5483453,14.8200117 48.165,12.48 C45.7816548,10.1399883 42.9433498,8.2766736 39.65,6.89 C36.3566502,5.5033264 32.8033524,4.81 28.99,4.81 L2.86,4.81 L2.86,102.44 Z M53.04,76.31 C53.04,79.4300156 52.4333394,82.3983193 51.22,85.215 C50.0066606,88.0316808 48.338344,90.5016561 46.215,92.625 C44.0916561,94.748344 41.6216808,96.4166606 38.805,97.63 C35.9883193,98.8433394 32.9766827,99.45 29.77,99.45 L5.72,99.45 L5.72,7.8 L29.77,7.8 C32.9766827,7.8 35.9883193,8.4066606 38.805,9.62 C41.6216808,10.8333394 44.0916561,12.501656 46.215,14.625 C48.338344,16.7483439 50.0066606,19.2183193 51.22,22.035 C52.4333394,24.8516808 53.04,27.8199844 53.04,30.94 L53.04,76.31 Z M8.84,96.59 L28.99,96.59 C32.0233485,96.59 34.8183206,96.0700052 37.375,95.03 C39.9316794,93.9899948 42.1633238,92.5383427 44.07,90.675 C45.9766762,88.8116574 47.4499948,86.580013 48.49,83.98 C49.5300052,81.379987 50.05,78.5633485 50.05,75.53 L50.05,31.72 C50.05,28.6866515 49.5300052,25.870013 48.49,23.27 C47.4499948,20.669987 45.9766762,18.4383427 44.07,16.575 C42.1633238,14.7116573 39.9316794,13.2600052 37.375,12.22 C34.8183206,11.1799948 32.0233485,10.66 28.99,10.66 L8.84,10.66 L8.84,96.59 Z M47.06,75.53 C47.06,78.3033472 46.626671,80.794989 45.76,83.005 C44.893329,85.2150111 43.6800078,87.0999922 42.12,88.66 C40.5599922,90.2200078 38.7183439,91.433329 36.595,92.3 C34.471656,93.166671 32.1966788,93.6 29.77,93.6 L11.7,93.6 L11.7,13.65 L29.77,13.65 C32.1966788,13.65 34.471656,14.083329 36.595,14.95 C38.7183439,15.816671 40.5599922,17.0516587 42.12,18.655 C43.6800078,20.2583413 44.893329,22.164989 45.76,24.375 C46.626671,26.585011 47.06,29.0333199 47.06,31.72 L47.06,75.53 Z M14.69,90.74 L28.99,90.74 C33.5833563,90.74 37.2449863,89.4833459 39.975,86.97 C42.7050137,84.4566541 44.07,80.9033563 44.07,76.31 L44.07,30.94 C44.07,26.3466437 42.7050137,22.8150123 39.975,20.345 C37.2449863,17.8749876 33.5833563,16.64 28.99,16.64 L14.69,16.64 L14.69,90.74 Z M76.7,55.12 L76.7,105.43 L73.58,105.43 L73.58,7.8 L96.98,7.8 C104.433371,7.8 110.283312,9.85831275 114.53,13.975 C118.776688,18.0916873 120.9,23.616632 120.9,30.55 C120.9,36.616697 119.491681,41.6649799 116.675,45.695 C113.858319,49.7250202 110.066691,52.3899935 105.3,53.69 C110.500026,55.1633407 114.464986,58.0233121 117.195,62.27 C119.925014,66.5166879 121.29,71.3266398 121.29,76.7 L121.29,105.43 L118.17,105.43 L118.17,76.7 C118.17,73.6666515 117.671672,70.850013 116.675,68.25 C115.678328,65.649987 114.270009,63.3750098 112.45,61.425 C110.629991,59.4749903 108.398347,57.9366723 105.755,56.81 C103.111653,55.6833277 100.186683,55.12 96.98,55.12 L76.7,55.12 Z M96.98,52.26 C100.446684,52.26 103.501653,51.6966723 106.145,50.57 C108.788347,49.4433277 110.998324,47.9050098 112.775,45.955 C114.551676,44.0049903 115.894995,41.7083466 116.805,39.065 C117.715005,36.4216535 118.17,33.5833485 118.17,30.55 C118.17,24.5699701 116.328352,19.7600182 112.645,16.12 C108.961648,12.4799818 103.740034,10.66 96.98,10.66 L76.7,10.66 L76.7,52.26 L96.98,52.26 Z M79.56,13.65 L96.98,13.65 C102.96003,13.65 107.509984,15.1666515 110.63,18.2 C113.750016,21.2333485 115.31,25.349974 115.31,30.55 C115.31,36.7900312 113.620017,41.4916509 110.24,44.655 C106.859983,47.8183492 102.440027,49.4 96.98,49.4 L79.56,49.4 L79.56,13.65 Z M96.98,46.41 C101.486689,46.41 105.213319,45.1316795 108.16,42.575 C111.106681,40.0183205 112.58,36.0100273 112.58,30.55 C112.58,25.8699766 111.215014,22.3816781 108.485,20.085 C105.754986,17.7883219 101.920025,16.64 96.98,16.64 L82.55,16.64 L82.55,46.41 L96.98,46.41 Z M115.83,53.69 C119.643352,56.290013 122.481657,59.5833134 124.345,63.57 C126.208343,67.5566866 127.14,71.9333095 127.14,76.7 L127.14,105.43 L124.15,105.43 L124.15,76.7 C124.15,71.7599753 123.131677,67.361686 121.095,63.505 C119.058323,59.6483141 115.830022,56.3766801 111.41,53.69 C115.830022,51.1766541 118.949991,48.0350189 120.77,44.265 C122.590009,40.4949812 123.5,35.9233602 123.5,30.55 C123.5,22.4032926 121.138357,16.0766892 116.415,11.57 C111.691643,7.0633108 105.213375,4.81 96.98,4.81 L70.72,4.81 L70.72,105.43 L67.86,105.43 L67.86,1.82 L96.98,1.82 C105.993378,1.82 113.143307,4.26830885 118.43,9.165 C123.716693,14.0616912 126.36,21.1899532 126.36,30.55 C126.36,36.616697 125.406676,41.4483154 123.5,45.045 C121.593324,48.6416847 119.036683,51.5233225 115.83,53.69 Z M96.98,58.24 C102.786696,58.24 107.293317,59.8649838 110.5,63.115 C113.706683,66.3650163 115.31,70.8933043 115.31,76.7 L115.31,105.43 L112.45,105.43 L112.45,76.7 C112.45,72.0199766 111.085014,68.2283479 108.355,65.325 C105.624986,62.4216521 101.833358,60.97 96.98,60.97 L82.55,60.97 L82.55,105.43 L79.56,105.43 L79.56,58.24 L96.98,58.24 Z M192.79,75.66 L195.65,75.66 L195.65,78.26 C195.65,82.5066879 194.891674,86.4066489 193.375,89.96 C191.858326,93.5133511 189.778347,96.589987 187.135,99.19 C184.491653,101.790013 181.371685,103.804993 177.775,105.235 C174.178315,106.665007 170.343354,107.38 166.27,107.38 C162.196646,107.38 158.361685,106.665007 154.765,105.235 C151.168315,103.804993 148.02668,101.790013 145.34,99.19 C142.65332,96.589987 140.551674,93.5133511 139.035,89.96 C137.518326,86.4066489 136.76,82.5066879 136.76,78.26 L136.76,29.12 C136.76,24.8733121 137.518326,20.9516847 139.035,17.355 C140.551674,13.7583154 142.65332,10.6816795 145.34,8.125 C148.02668,5.56832055 151.168315,3.57500715 154.765,2.145 C158.361685,0.71499285 162.196646,0 166.27,0 C170.343354,0 174.178315,0.71499285 177.775,2.145 C181.371685,3.57500715 184.491653,5.56832055 187.135,8.125 C189.778347,10.6816795 191.858326,13.7583154 193.375,17.355 C194.891674,20.9516847 195.65,24.8733121 195.65,29.12 L195.65,32.11 L192.79,32.11 L192.79,29.12 C192.79,25.1333134 192.031674,21.5366827 190.515,18.33 C188.998326,15.1233173 187.005012,12.3933446 184.535,10.14 C182.064988,7.8866554 179.248349,6.13167295 176.085,4.875 C172.921651,3.61832705 169.650017,2.99 166.27,2.99 C162.889983,2.99 159.596683,3.61832705 156.39,4.875 C153.183317,6.13167295 150.345012,7.8866554 147.875,10.14 C145.404988,12.3933446 143.411674,15.1233173 141.895,18.33 C140.378326,21.5366827 139.62,25.1333134 139.62,29.12 L139.62,78.26 C139.62,82.1600195 140.378326,85.7133173 141.895,88.92 C143.411674,92.1266827 145.404988,94.8783219 147.875,97.175 C150.345012,99.4716782 153.183317,101.226661 156.39,102.44 C159.596683,103.653339 162.889983,104.26 166.27,104.26 C169.650017,104.26 172.921651,103.653339 176.085,102.44 C179.248349,101.226661 182.064988,99.4716782 184.535,97.175 C187.005012,94.8783219 188.998326,92.1266827 190.515,88.92 C192.031674,85.7133173 192.79,82.1600195 192.79,78.26 L192.79,75.66 Z M145.73,52.39 L176.54,52.39 L176.54,55.25 L145.73,55.25 L145.73,78.26 C145.73,81.2066814 146.228328,83.9149877 147.225,86.385 C148.221672,88.8550124 149.629991,90.9999909 151.45,92.82 C153.270009,94.6400091 155.436654,96.0483284 157.95,97.045 C160.463346,98.0416717 163.236651,98.54 166.27,98.54 C169.216681,98.54 171.946654,98.0416717 174.46,97.045 C176.973346,96.0483284 179.139991,94.6400091 180.96,92.82 C182.780009,90.9999909 184.209995,88.8550124 185.25,86.385 C186.290005,83.9149877 186.81,81.2066814 186.81,78.26 L186.81,75.66 L189.8,75.66 L189.8,78.26 C189.8,81.726684 189.150006,84.8683193 187.85,87.685 C186.549993,90.5016808 184.795011,92.9283232 182.585,94.965 C180.374989,97.0016769 177.861681,98.5833277 175.045,99.71 C172.228319,100.836672 169.303348,101.4 166.27,101.4 C163.236651,101.4 160.311681,100.836672 157.495,99.71 C154.678319,98.5833277 152.165011,97.0016769 149.955,94.965 C147.744989,92.9283232 145.96834,90.5016808 144.625,87.685 C143.28166,84.8683193 142.61,81.726684 142.61,78.26 L142.61,29.12 C142.61,25.653316 143.28166,22.4900143 144.625,19.63 C145.96834,16.7699857 147.744989,14.3216769 149.955,12.285 C152.165011,10.2483232 154.678319,8.6666723 157.495,7.54 C160.311681,6.4133277 163.236651,5.85 166.27,5.85 C169.303348,5.85 172.228319,6.4133277 175.045,7.54 C177.861681,8.6666723 180.374989,10.2483232 182.585,12.285 C184.795011,14.3216769 186.549993,16.7699857 187.85,19.63 C189.150006,22.4900143 189.8,25.653316 189.8,29.12 L189.8,32.11 L186.81,32.11 L186.81,29.12 C186.81,26.1733186 186.290005,23.4433459 185.25,20.93 C184.209995,18.4166541 182.780009,16.2716756 180.96,14.495 C179.139991,12.7183244 176.973346,11.3316717 174.46,10.335 C171.946654,9.33832835 169.216681,8.84 166.27,8.84 C163.236651,8.84 160.463346,9.33832835 157.95,10.335 C155.436654,11.3316717 153.270009,12.7183244 151.45,14.495 C149.629991,16.2716756 148.221672,18.4166541 147.225,20.93 C146.228328,23.4433459 145.73,26.1733186 145.73,29.12 L145.73,52.39 Z M151.45,46.41 L176.54,46.41 L176.54,49.53 L148.59,49.53 L148.59,29.12 C148.59,26.4333199 149.066662,24.028344 150.02,21.905 C150.973338,19.781656 152.273325,17.9616742 153.92,16.445 C155.566675,14.9283257 157.451656,13.7800039 159.575,13 C161.698344,12.2199961 163.929988,11.83 166.27,11.83 C168.610012,11.83 170.81999,12.2199961 172.9,13 C174.98001,13.7800039 176.843325,14.9283257 178.49,16.445 C180.136675,17.9616742 181.436662,19.781656 182.39,21.905 C183.343338,24.028344 183.82,26.4333199 183.82,29.12 L183.82,32.11 L180.96,32.11 L180.96,29.12 C180.96,24.5266437 179.638347,20.9733459 176.995,18.46 C174.351653,15.9466541 170.776689,14.69 166.27,14.69 C161.676644,14.69 158.058347,15.9466541 155.415,18.46 C152.771653,20.9733459 151.45,24.5266437 151.45,29.12 L151.45,46.41 Z M180.96,75.66 L183.82,75.66 L183.82,78.26 C183.82,80.9466801 183.343338,83.3516561 182.39,85.475 C181.436662,87.598344 180.136675,89.3966593 178.49,90.87 C176.843325,92.3433407 174.98001,93.4699961 172.9,94.25 C170.81999,95.0300039 168.610012,95.42 166.27,95.42 C163.929988,95.42 161.698344,95.0300039 159.575,94.25 C157.451656,93.4699961 155.566675,92.3433407 153.92,90.87 C152.273325,89.3966593 150.973338,87.598344 150.02,85.475 C149.066662,83.3516561 148.59,80.9466801 148.59,78.26 L148.59,58.24 L176.54,58.24 L176.54,61.23 L151.45,61.23 L151.45,78.26 C151.45,82.7666892 152.771653,86.2766541 155.415,88.79 C158.058347,91.3033459 161.676644,92.56 166.27,92.56 C170.776689,92.56 174.351653,91.3033459 176.995,88.79 C179.638347,86.2766541 180.96,82.7666892 180.96,78.26 L180.96,75.66 Z M249.47,81.38 C249.47,86.580026 250.921652,90.7399844 253.825,93.86 C256.728348,96.9800156 260.909973,98.54 266.37,98.54 C271.74336,98.54 275.881652,96.9800156 278.785,93.86 C281.688348,90.7399844 283.14,86.580026 283.14,81.38 L283.14,1.82 L286.13,1.82 L286.13,81.38 C286.13,87.2733628 284.461683,92.0833147 281.125,95.81 C277.788317,99.5366853 272.870032,101.4 266.37,101.4 C261.689977,101.4 257.63835,100.251678 254.215,97.955 C250.79165,95.6583219 248.733337,92.5166866 248.04,88.53 C246.913328,92.9500221 244.790016,96.1999896 241.67,98.28 C238.549984,100.36001 234.563358,101.4 229.71,101.4 C223.209967,101.4 218.270017,99.5366853 214.89,95.81 C211.509983,92.0833147 209.82,87.2733628 209.82,81.38 L209.82,1.82 L212.94,1.82 L212.94,81.38 C212.94,86.580026 214.369986,90.7399844 217.23,93.86 C220.090014,96.9800156 224.249973,98.54 229.71,98.54 C235.08336,98.54 239.243319,96.9800156 242.19,93.86 C245.136681,90.7399844 246.61,86.580026 246.61,81.38 L246.61,1.82 L249.47,1.82 L249.47,81.38 Z M206.83,81.38 C206.83,84.6733498 207.306662,87.7283192 208.26,90.545 C209.213338,93.3616808 210.643324,95.7883232 212.55,97.825 C214.456676,99.8616769 216.839986,101.443328 219.7,102.57 C222.560014,103.696672 225.896648,104.26 229.71,104.26 C237.163371,104.26 243.229977,101.486694 247.91,95.94 C252.590023,101.486694 258.743295,104.26 266.37,104.26 C270.183352,104.26 273.519986,103.696672 276.38,102.57 C279.240014,101.443328 281.601657,99.8616769 283.465,97.825 C285.328343,95.7883232 286.736662,93.3616808 287.69,90.545 C288.643338,87.7283192 289.12,84.6733498 289.12,81.38 L289.12,1.82 L291.98,1.82 L291.98,81.38 C291.98,85.1933524 291.460005,88.6816509 290.42,91.845 C289.379995,95.0083492 287.798344,97.7383219 285.675,100.035 C283.551656,102.331678 280.886683,104.129994 277.68,105.43 C274.473317,106.730007 270.703355,107.38 266.37,107.38 C262.296646,107.38 258.743349,106.730007 255.71,105.43 C252.676652,104.129994 250.12001,102.44001 248.04,100.36 C246.046657,102.44001 243.511682,104.129994 240.435,105.43 C237.358318,106.730007 233.783354,107.38 229.71,107.38 C225.289978,107.38 221.476683,106.730007 218.27,105.43 C215.063317,104.129994 212.398344,102.331678 210.275,100.035 C208.151656,97.7383219 206.570005,95.0083492 205.53,91.845 C204.489995,88.6816509 203.97,85.1933524 203.97,81.38 L203.97,1.82 L206.83,1.82 L206.83,81.38 Z M218.66,81.38 C218.66,85.1933524 219.69999,88.0099909 221.78,89.83 C223.86001,91.6500091 226.503317,92.56 229.71,92.56 C232.830016,92.56 235.451656,91.6500091 237.575,89.83 C239.698344,88.0099909 240.76,85.1933524 240.76,81.38 L240.76,1.82 L243.62,1.82 L243.62,81.38 C243.62,85.8000221 242.341679,89.2449877 239.785,91.715 C237.228321,94.1850124 233.870021,95.42 229.71,95.42 C225.549979,95.42 222.191679,94.1850124 219.635,91.715 C217.078321,89.2449877 215.8,85.8000221 215.8,81.38 L215.8,1.82 L218.66,1.82 L218.66,81.38 Z M255.19,81.38 C255.19,85.1933524 256.251656,88.0099909 258.375,89.83 C260.498344,91.6500091 263.163317,92.56 266.37,92.56 C269.490016,92.56 272.08999,91.6500091 274.17,89.83 C276.25001,88.0099909 277.29,85.1933524 277.29,81.38 L277.29,1.82 L280.15,1.82 L280.15,81.38 C280.15,85.8000221 278.893346,89.2449877 276.38,91.715 C273.866654,94.1850124 270.530021,95.42 266.37,95.42 C262.209979,95.42 258.830013,94.1850124 256.23,91.715 C253.629987,89.2449877 252.33,85.8000221 252.33,81.38 L252.33,1.82 L255.19,1.82 L255.19,81.38 Z M394.55,105.43 L391.69,105.43 L391.69,1.82 L394.55,1.82 L394.55,105.43 Z M382.85,49.53 L347.49,49.53 L347.49,1.82 L350.35,1.82 L350.35,46.41 L379.86,46.41 L379.86,1.82 L382.85,1.82 L382.85,49.53 Z M388.7,105.43 L385.84,105.43 L385.84,55.25 L344.63,55.25 L344.63,105.43 L341.51,105.43 L341.51,1.82 L344.63,1.82 L344.63,52.39 L385.84,52.39 L385.84,1.82 L388.7,1.82 L388.7,105.43 Z M338.65,105.43 L335.66,105.43 L335.66,1.82 L338.65,1.82 L338.65,105.43 Z M382.85,105.43 L379.86,105.43 L379.86,61.23 L350.35,61.23 L350.35,105.43 L347.49,105.43 L347.49,58.24 L382.85,58.24 L382.85,105.43 Z M454.35,52.26 L454.35,29.51 C454.35,26.5633186 453.786672,23.8116795 452.66,21.255 C451.533328,18.6983206 450.038343,16.4666762 448.175,14.56 C446.311657,12.6533238 444.101679,11.1583387 441.545,10.075 C438.988321,8.99166125 436.280014,8.45 433.42,8.45 C430.646653,8.45 428.025012,8.99166125 425.555,10.075 C423.084988,11.1583387 420.918343,12.6316573 419.055,14.495 C417.191657,16.3583427 415.718339,18.5249877 414.635,20.995 C413.551661,23.4650124 413.01,26.0866528 413.01,28.86 L413.01,52.26 L454.35,52.26 Z M457.21,105.43 L454.35,105.43 L454.35,55.12 L413.01,55.12 L413.01,105.43 L410.02,105.43 L410.02,29.51 C410.02,26.1299831 410.648327,22.945015 411.905,19.955 C413.161673,16.964985 414.851656,14.3866775 416.975,12.22 C419.098344,10.0533225 421.589986,8.34167295 424.45,7.085 C427.310014,5.82832705 430.299984,5.2 433.42,5.2 C436.800017,5.2 439.919986,5.8499935 442.78,7.15 C445.640014,8.4500065 448.153323,10.204989 450.32,12.415 C452.486678,14.6250111 454.176661,17.1599857 455.39,20.02 C456.603339,22.8800143 457.21,25.8266515 457.21,28.86 L457.21,105.43 Z M448.37,46.28 L448.37,28.86 C448.37,24.2666437 446.983347,20.6916795 444.21,18.135 C441.436653,15.5783206 437.840022,14.3 433.42,14.3 C428.913311,14.3 425.360013,15.6433199 422.76,18.33 C420.159987,21.0166801 418.86,24.526645 418.86,28.86 L418.86,46.28 L448.37,46.28 Z M451.23,49.27 L416,49.27 L416,29.51 C416,26.909987 416.433329,24.5050111 417.3,22.295 C418.166671,20.0849889 419.379992,18.1783414 420.94,16.575 C422.500008,14.9716586 424.341656,13.6933381 426.465,12.74 C428.588344,11.7866619 430.906654,11.31 433.42,11.31 C436.020013,11.31 438.403323,11.7866619 440.57,12.74 C442.736678,13.6933381 444.621659,14.9716586 446.225,16.575 C447.828341,18.1783414 449.063329,20.0849889 449.93,22.295 C450.796671,24.5050111 451.23,26.909987 451.23,29.51 L451.23,49.27 Z M463.19,105.43 L460.2,105.43 L460.2,28.86 C460.2,25.4799831 459.463341,22.2083492 457.99,19.045 C456.516659,15.8816509 454.545012,13.0866788 452.075,10.66 C449.604988,8.2333212 446.766683,6.2833407 443.56,4.81 C440.353317,3.3366593 437.016684,2.6 433.55,2.6 C430.25665,2.6 427.006683,3.31499285 423.8,4.745 C420.593317,6.17500715 417.755012,8.1033212 415.285,10.53 C412.814988,12.9566788 410.821674,15.7516509 409.305,18.915 C407.788326,22.0783492 407.03,25.393316 407.03,28.86 L407.03,105.43 L404.17,105.43 L404.17,29.12 C404.17,24.9599792 404.928326,21.1033511 406.445,17.55 C407.961674,13.9966489 410.06332,10.920013 412.75,8.32 C415.43668,5.719987 418.534982,3.6833407 422.045,2.21 C425.555018,0.7366593 429.346646,0 433.42,0 C437.493354,0 441.328315,0.75832575 444.925,2.275 C448.521685,3.79167425 451.684986,5.87165345 454.415,8.515 C457.145014,11.1583466 459.289992,14.2566489 460.85,17.81 C462.410008,21.3633511 463.19,25.1333134 463.19,29.12 L463.19,105.43 Z M451.23,105.43 L448.37,105.43 L448.37,61.1 L418.86,61.1 L418.86,105.43 L416,105.43 L416,58.24 L451.23,58.24 L451.23,105.43 Z M481.52,55.12 L481.52,105.43 L478.4,105.43 L478.4,7.8 L501.8,7.8 C509.253371,7.8 515.103312,9.85831275 519.35,13.975 C523.596688,18.0916873 525.72,23.616632 525.72,30.55 C525.72,36.616697 524.311681,41.6649799 521.495,45.695 C518.678319,49.7250202 514.88669,52.3899935 510.12,53.69 C515.320026,55.1633407 519.284986,58.0233121 522.015,62.27 C524.745014,66.5166879 526.11,71.3266398 526.11,76.7 L526.11,105.43 L522.99,105.43 L522.99,76.7 C522.99,73.6666515 522.491672,70.850013 521.495,68.25 C520.498328,65.649987 519.090009,63.3750098 517.27,61.425 C515.449991,59.4749903 513.218347,57.9366723 510.575,56.81 C507.931653,55.6833277 505.006683,55.12 501.8,55.12 L481.52,55.12 Z M501.8,52.26 C505.266684,52.26 508.321653,51.6966723 510.965,50.57 C513.608347,49.4433277 515.818324,47.9050098 517.595,45.955 C519.371676,44.0049903 520.714995,41.7083466 521.625,39.065 C522.535005,36.4216535 522.99,33.5833485 522.99,30.55 C522.99,24.5699701 521.148352,19.7600182 517.465,16.12 C513.781648,12.4799818 508.560034,10.66 501.8,10.66 L481.52,10.66 L481.52,52.26 L501.8,52.26 Z M484.38,13.65 L501.8,13.65 C507.78003,13.65 512.329984,15.1666515 515.45,18.2 C518.570016,21.2333485 520.13,25.349974 520.13,30.55 C520.13,36.7900312 518.440017,41.4916509 515.06,44.655 C511.679983,47.8183492 507.260027,49.4 501.8,49.4 L484.38,49.4 L484.38,13.65 Z M501.8,46.41 C506.306689,46.41 510.033319,45.1316795 512.98,42.575 C515.926681,40.0183205 517.4,36.0100273 517.4,30.55 C517.4,25.8699766 516.035014,22.3816781 513.305,20.085 C510.574986,17.7883219 506.740025,16.64 501.8,16.64 L487.37,16.64 L487.37,46.41 L501.8,46.41 Z M520.65,53.69 C524.463352,56.290013 527.301657,59.5833134 529.165,63.57 C531.028343,67.5566866 531.96,71.9333095 531.96,76.7 L531.96,105.43 L528.97,105.43 L528.97,76.7 C528.97,71.7599753 527.951677,67.361686 525.915,63.505 C523.878323,59.6483141 520.650022,56.3766801 516.23,53.69 C520.650022,51.1766541 523.769991,48.0350189 525.59,44.265 C527.410009,40.4949812 528.32,35.9233602 528.32,30.55 C528.32,22.4032926 525.958357,16.0766892 521.235,11.57 C516.511643,7.0633108 510.033375,4.81 501.8,4.81 L475.54,4.81 L475.54,105.43 L472.68,105.43 L472.68,1.82 L501.8,1.82 C510.813378,1.82 517.963307,4.26830885 523.25,9.165 C528.536693,14.0616912 531.18,21.1899532 531.18,30.55 C531.18,36.616697 530.226676,41.4483154 528.32,45.045 C526.413324,48.6416847 523.856683,51.5233225 520.65,53.69 Z M501.8,58.24 C507.606696,58.24 512.113317,59.8649838 515.32,63.115 C518.526683,66.3650163 520.13,70.8933043 520.13,76.7 L520.13,105.43 L517.27,105.43 L517.27,76.7 C517.27,72.0199766 515.905014,68.2283479 513.175,65.325 C510.444986,62.4216521 506.653358,60.97 501.8,60.97 L487.37,60.97 L487.37,105.43 L484.38,105.43 L484.38,58.24 L501.8,58.24 Z M570.7,46.02 C575.293356,46.02 578.954986,44.720013 581.685,42.12 C584.415014,39.519987 585.78,35.9233563 585.78,31.33 C585.78,26.7366437 584.415014,23.140013 581.685,20.54 C578.954986,17.939987 575.293356,16.64 570.7,16.64 L556.27,16.64 L556.27,46.02 L570.7,46.02 Z M556.27,105.43 L553.41,105.43 L553.41,57.98 L570.7,57.98 C574.080017,57.98 577.373317,57.2650072 580.58,55.835 C583.786683,54.4049928 586.668321,52.4766788 589.225,50.05 C591.781679,47.6233212 593.818326,44.8066827 595.335,41.6 C596.851674,38.3933173 597.61,34.9700182 597.61,31.33 C597.61,27.7766489 596.916674,24.3966827 595.53,21.19 C594.143326,17.9833173 592.236679,15.1666788 589.81,12.74 C587.383321,10.3133212 584.52335,8.38500715 581.23,6.955 C577.93665,5.52499285 574.426685,4.81 570.7,4.81 L544.57,4.81 L544.57,105.43 L541.58,105.43 L541.58,1.82 L570.7,1.82 C574.860021,1.82 578.738315,2.5999922 582.335,4.16 C585.931685,5.7200078 589.07332,7.8433199 591.76,10.53 C594.44668,13.2166801 596.569992,16.3583153 598.13,19.955 C599.690008,23.5516846 600.47,27.3433134 600.47,31.33 C600.47,35.4033537 599.646675,39.2383154 598,42.835 C596.353325,46.4316847 594.143347,49.5733199 591.37,52.26 C588.596653,54.9466801 585.433351,57.0483258 581.88,58.565 C578.326649,60.0816743 574.60002,60.84 570.7,60.84 L556.27,60.84 L556.27,105.43 Z M553.54,49.4 L553.54,13.65 L570.7,13.65 C573.300013,13.65 575.704989,14.1049955 577.915,15.015 C580.125011,15.9250046 582.031659,17.1599922 583.635,18.72 C585.238341,20.2800078 586.494995,22.1433225 587.405,24.31 C588.315005,26.4766775 588.77,28.8166541 588.77,31.33 C588.77,36.9633615 587.05835,41.3616509 583.635,44.525 C580.21165,47.6883492 575.900026,49.27 570.7,49.27 L553.54,49.4 Z M570.7,52 C573.646681,52 576.398321,51.4583387 578.955,50.375 C581.511679,49.2916613 583.743324,47.8183427 585.65,45.955 C587.556676,44.0916574 589.051661,41.9033459 590.135,39.39 C591.218339,36.8766541 591.76,34.1900143 591.76,31.33 C591.76,28.5566528 591.218339,25.9133459 590.135,23.4 C589.051661,20.8866541 587.578343,18.6983427 585.715,16.835 C583.851657,14.9716574 581.620013,13.4766723 579.02,12.35 C576.419987,11.2233277 573.646681,10.66 570.7,10.66 L550.42,10.66 L550.42,52 L570.7,52 Z M550.42,105.43 L547.43,105.43 L547.43,7.8 L570.7,7.8 C574.080017,7.8 577.221652,8.4066606 580.125,9.62 C583.028348,10.8333394 585.563323,12.501656 587.73,14.625 C589.896678,16.7483439 591.586661,19.2399857 592.8,22.1 C594.013339,24.9600143 594.62,28.0366502 594.62,31.33 C594.62,34.796684 593.970007,37.9599857 592.67,40.82 C591.369994,43.6800143 589.615011,46.1499896 587.405,48.23 C585.194989,50.3100104 582.638348,51.9349942 579.735,53.105 C576.831652,54.2750059 573.820016,54.86 570.7,54.86 L550.42,54.86 L550.42,105.43 Z M664.17,75.66 L667.03,75.66 L667.03,78.26 C667.03,82.5066879 666.271674,86.4066489 664.755,89.96 C663.238326,93.5133511 661.158347,96.589987 658.515,99.19 C655.871653,101.790013 652.751685,103.804993 649.155,105.235 C645.558315,106.665007 641.723354,107.38 637.65,107.38 C633.576646,107.38 629.741685,106.665007 626.145,105.235 C622.548315,103.804993 619.40668,101.790013 616.72,99.19 C614.03332,96.589987 611.931674,93.5133511 610.415,89.96 C608.898326,86.4066489 608.14,82.5066879 608.14,78.26 L608.14,29.12 C608.14,24.8733121 608.898326,20.9516847 610.415,17.355 C611.931674,13.7583154 614.03332,10.6816795 616.72,8.125 C619.40668,5.56832055 622.548315,3.57500715 626.145,2.145 C629.741685,0.71499285 633.576646,0 637.65,0 C641.723354,0 645.558315,0.71499285 649.155,2.145 C652.751685,3.57500715 655.871653,5.56832055 658.515,8.125 C661.158347,10.6816795 663.238326,13.7583154 664.755,17.355 C666.271674,20.9516847 667.03,24.8733121 667.03,29.12 L667.03,32.11 L664.17,32.11 L664.17,29.12 C664.17,25.1333134 663.411674,21.5366827 661.895,18.33 C660.378326,15.1233173 658.385012,12.3933446 655.915,10.14 C653.444988,7.8866554 650.628349,6.13167295 647.465,4.875 C644.301651,3.61832705 641.030017,2.99 637.65,2.99 C634.269983,2.99 630.976683,3.61832705 627.77,4.875 C624.563317,6.13167295 621.725012,7.8866554 619.255,10.14 C616.784988,12.3933446 614.791674,15.1233173 613.275,18.33 C611.758326,21.5366827 611,25.1333134 611,29.12 L611,78.26 C611,82.1600195 611.758326,85.7133173 613.275,88.92 C614.791674,92.1266827 616.784988,94.8783219 619.255,97.175 C621.725012,99.4716782 624.563317,101.226661 627.77,102.44 C630.976683,103.653339 634.269983,104.26 637.65,104.26 C641.030017,104.26 644.301651,103.653339 647.465,102.44 C650.628349,101.226661 653.444988,99.4716782 655.915,97.175 C658.385012,94.8783219 660.378326,92.1266827 661.895,88.92 C663.411674,85.7133173 664.17,82.1600195 664.17,78.26 L664.17,75.66 Z M617.11,52.39 L647.92,52.39 L647.92,55.25 L617.11,55.25 L617.11,78.26 C617.11,81.2066814 617.608328,83.9149877 618.605,86.385 C619.601672,88.8550124 621.009991,90.9999909 622.83,92.82 C624.650009,94.6400091 626.816654,96.0483284 629.33,97.045 C631.843346,98.0416717 634.616652,98.54 637.65,98.54 C640.596681,98.54 643.326654,98.0416717 645.84,97.045 C648.353346,96.0483284 650.519991,94.6400091 652.34,92.82 C654.160009,90.9999909 655.589995,88.8550124 656.63,86.385 C657.670005,83.9149877 658.19,81.2066814 658.19,78.26 L658.19,75.66 L661.18,75.66 L661.18,78.26 C661.18,81.726684 660.530007,84.8683193 659.23,87.685 C657.929994,90.5016808 656.175011,92.9283232 653.965,94.965 C651.754989,97.0016769 649.241681,98.5833277 646.425,99.71 C643.608319,100.836672 640.683349,101.4 637.65,101.4 C634.616652,101.4 631.691681,100.836672 628.875,99.71 C626.058319,98.5833277 623.545011,97.0016769 621.335,94.965 C619.124989,92.9283232 617.34834,90.5016808 616.005,87.685 C614.66166,84.8683193 613.99,81.726684 613.99,78.26 L613.99,29.12 C613.99,25.653316 614.66166,22.4900143 616.005,19.63 C617.34834,16.7699857 619.124989,14.3216769 621.335,12.285 C623.545011,10.2483232 626.058319,8.6666723 628.875,7.54 C631.691681,6.4133277 634.616652,5.85 637.65,5.85 C640.683349,5.85 643.608319,6.4133277 646.425,7.54 C649.241681,8.6666723 651.754989,10.2483232 653.965,12.285 C656.175011,14.3216769 657.929994,16.7699857 659.23,19.63 C660.530007,22.4900143 661.18,25.653316 661.18,29.12 L661.18,32.11 L658.19,32.11 L658.19,29.12 C658.19,26.1733186 657.670005,23.4433459 656.63,20.93 C655.589995,18.4166541 654.160009,16.2716756 652.34,14.495 C650.519991,12.7183244 648.353346,11.3316717 645.84,10.335 C643.326654,9.33832835 640.596681,8.84 637.65,8.84 C634.616652,8.84 631.843346,9.33832835 629.33,10.335 C626.816654,11.3316717 624.650009,12.7183244 622.83,14.495 C621.009991,16.2716756 619.601672,18.4166541 618.605,20.93 C617.608328,23.4433459 617.11,26.1733186 617.11,29.12 L617.11,52.39 Z M622.83,46.41 L647.92,46.41 L647.92,49.53 L619.97,49.53 L619.97,29.12 C619.97,26.4333199 620.446662,24.028344 621.4,21.905 C622.353338,19.781656 623.653325,17.9616742 625.3,16.445 C626.946675,14.9283257 628.831656,13.7800039 630.955,13 C633.078344,12.2199961 635.309988,11.83 637.65,11.83 C639.990012,11.83 642.19999,12.2199961 644.28,13 C646.36001,13.7800039 648.223325,14.9283257 649.87,16.445 C651.516675,17.9616742 652.816662,19.781656 653.77,21.905 C654.723338,24.028344 655.2,26.4333199 655.2,29.12 L655.2,32.11 L652.34,32.11 L652.34,29.12 C652.34,24.5266437 651.018347,20.9733459 648.375,18.46 C645.731653,15.9466541 642.156689,14.69 637.65,14.69 C633.056644,14.69 629.438347,15.9466541 626.795,18.46 C624.151653,20.9733459 622.83,24.5266437 622.83,29.12 L622.83,46.41 Z M652.34,75.66 L655.2,75.66 L655.2,78.26 C655.2,80.9466801 654.723338,83.3516561 653.77,85.475 C652.816662,87.598344 651.516675,89.3966593 649.87,90.87 C648.223325,92.3433407 646.36001,93.4699961 644.28,94.25 C642.19999,95.0300039 639.990012,95.42 637.65,95.42 C635.309988,95.42 633.078344,95.0300039 630.955,94.25 C628.831656,93.4699961 626.946675,92.3433407 625.3,90.87 C623.653325,89.3966593 622.353338,87.598344 621.4,85.475 C620.446662,83.3516561 619.97,80.9466801 619.97,78.26 L619.97,58.24 L647.92,58.24 L647.92,61.23 L622.83,61.23 L622.83,78.26 C622.83,82.7666892 624.151653,86.2766541 626.795,88.79 C629.438347,91.3033459 633.056644,92.56 637.65,92.56 C642.156689,92.56 645.731653,91.3033459 648.375,88.79 C651.018347,86.2766541 652.34,82.7666892 652.34,78.26 L652.34,75.66 Z M684.71,55.12 L684.71,105.43 L681.59,105.43 L681.59,7.8 L704.99,7.8 C712.443371,7.8 718.293312,9.85831275 722.54,13.975 C726.786688,18.0916873 728.91,23.616632 728.91,30.55 C728.91,36.616697 727.501681,41.6649799 724.685,45.695 C721.868319,49.7250202 718.076691,52.3899935 713.31,53.69 C718.510026,55.1633407 722.474986,58.0233121 725.205,62.27 C727.935014,66.5166879 729.3,71.3266398 729.3,76.7 L729.3,105.43 L726.18,105.43 L726.18,76.7 C726.18,73.6666515 725.681672,70.850013 724.685,68.25 C723.688328,65.649987 722.280009,63.3750098 720.46,61.425 C718.639991,59.4749903 716.408347,57.9366723 713.765,56.81 C711.121653,55.6833277 708.196683,55.12 704.99,55.12 L684.71,55.12 Z M704.99,52.26 C708.456684,52.26 711.511653,51.6966723 714.155,50.57 C716.798347,49.4433277 719.008324,47.9050098 720.785,45.955 C722.561676,44.0049903 723.904995,41.7083466 724.815,39.065 C725.725005,36.4216535 726.18,33.5833485 726.18,30.55 C726.18,24.5699701 724.338352,19.7600182 720.655,16.12 C716.971648,12.4799818 711.750034,10.66 704.99,10.66 L684.71,10.66 L684.71,52.26 L704.99,52.26 Z M687.57,13.65 L704.99,13.65 C710.97003,13.65 715.519984,15.1666515 718.64,18.2 C721.760016,21.2333485 723.32,25.349974 723.32,30.55 C723.32,36.7900312 721.630017,41.4916509 718.25,44.655 C714.869983,47.8183492 710.450027,49.4 704.99,49.4 L687.57,49.4 L687.57,13.65 Z M704.99,46.41 C709.496689,46.41 713.223319,45.1316795 716.17,42.575 C719.116681,40.0183205 720.59,36.0100273 720.59,30.55 C720.59,25.8699766 719.225014,22.3816781 716.495,20.085 C713.764986,17.7883219 709.930025,16.64 704.99,16.64 L690.56,16.64 L690.56,46.41 L704.99,46.41 Z M723.84,53.69 C727.653352,56.290013 730.491657,59.5833134 732.355,63.57 C734.218343,67.5566866 735.15,71.9333095 735.15,76.7 L735.15,105.43 L732.16,105.43 L732.16,76.7 C732.16,71.7599753 731.141677,67.361686 729.105,63.505 C727.068323,59.6483141 723.840022,56.3766801 719.42,53.69 C723.840022,51.1766541 726.959991,48.0350189 728.78,44.265 C730.600009,40.4949812 731.51,35.9233602 731.51,30.55 C731.51,22.4032926 729.148357,16.0766892 724.425,11.57 C719.701643,7.0633108 713.223375,4.81 704.99,4.81 L678.73,4.81 L678.73,105.43 L675.87,105.43 L675.87,1.82 L704.99,1.82 C714.003378,1.82 721.153307,4.26830885 726.44,9.165 C731.726693,14.0616912 734.37,21.1899532 734.37,30.55 C734.37,36.616697 733.416676,41.4483154 731.51,45.045 C729.603324,48.6416847 727.046683,51.5233225 723.84,53.69 Z M704.99,58.24 C710.796696,58.24 715.303317,59.8649838 718.51,63.115 C721.716683,66.3650163 723.32,70.8933043 723.32,76.7 L723.32,105.43 L720.46,105.43 L720.46,76.7 C720.46,72.0199766 719.095014,68.2283479 716.365,65.325 C713.634986,62.4216521 709.843358,60.97 704.99,60.97 L690.56,60.97 L690.56,105.43 L687.57,105.43 L687.57,58.24 L704.99,58.24 Z" id="Drew-Harper-Copy" fill="#FFFFFF"></path>
    </g>
</svg>