<?xml version="1.0" encoding="UTF-8"?>
<svg width="88px" height="60px" viewBox="0 0 88 60" version="1.1" xmlns="http://www.w3.org/2000/svg" xmlns:xlink="http://www.w3.org/1999/xlink">
    <!-- Generator: Sketch 50 (54983) - http://www.bohemiancoding.com/sketch -->
    <title>node</title>
    <desc>Created with Sketch.</desc>
    <defs></defs>
    <g id="Page-1" stroke="none" stroke-width="1" fill="none" fill-rule="evenodd">
        <g id="Artboard-Copy" transform="translate(-155.000000, -193.000000)">
            <g id="NPM" transform="translate(165.500000, 207.000000)">
                <g id="word" transform="translate(0.700941, 0.880687)">
                    <path d="M44.9596032,19.7555709 C44.9596032,19.827956 44.9201493,19.8949559 44.8556918,19.9307525 L42.4936546,21.2590281 C42.4295217,21.2949831 42.3502893,21.2949831 42.2863188,21.2590281 L39.9239569,19.9307525 C39.8590122,19.8947975 39.8200454,19.8277976 39.8200454,19.7555709 L39.8200454,17.0952182 C39.8200454,17.0226747 39.8590122,16.9558332 39.9223332,16.9194031 L42.2830715,15.58891 C42.3480162,15.5524798 42.4275734,15.5524798 42.4925181,15.58891 L44.85488,16.9194031 C44.9198246,16.9558332 44.9587914,17.0226747 44.9587914,17.0952182 L44.9596032,19.7555709 Z M45.5976845,0.0512847441 C45.4687693,-0.018724536 45.311928,-0.0168238315 45.1846365,0.0555613291 C45.0579944,0.128421666 44.9797361,0.261470977 44.9797361,0.40560773 L44.9797361,10.7010901 C44.9797361,10.802461 44.9245331,10.8959123 44.8345848,10.9465978 C44.7452859,10.9972832 44.6340681,10.9972832 44.5439574,10.9465978 L42.8213004,9.97866402 C42.564769,9.8338937 42.2488132,9.8338937 41.9913077,9.97866402 L35.1120448,13.8518245 C34.8550264,13.9959612 34.696399,14.2636438 34.696399,14.5519173 L34.696399,22.3004557 C34.696399,22.5903131 34.8550264,22.8564118 35.1120448,23.0021324 L41.9913077,26.8779856 C42.2481638,27.0221223 42.5644443,27.0221223 42.8221122,26.8779856 L49.701375,23.0005485 C49.9579064,22.8548278 50.1170208,22.5887292 50.1170208,22.2988718 L50.1170208,2.98771471 C50.1170208,2.69373909 49.9530356,2.42336388 49.6900097,2.27970231 L45.5976845,0.0512847441 Z" id="Shape" fill="#2A3128"></path>
                    <path d="M17.7639448,13.6721228 C17.5062676,13.8189865 17.3481995,14.0901196 17.3481995,14.3832016 L17.3481995,22.2376685 C17.3481995,22.5309118 17.5062676,22.8018835 17.7639448,22.9487472 L24.6439899,26.8763035 C24.9011771,27.022683 25.2182931,27.022683 25.4751538,26.8763035 L32.3540558,22.9487472 C32.6104266,22.8018835 32.7688213,22.5307504 32.7688213,22.2376685 L32.7688213,14.3832016 C32.7688213,14.0901196 32.6104266,13.8189865 32.3524229,13.6721228 L25.4745006,9.74763296 C25.3454987,9.67452386 25.2018005,9.63788862 25.0581022,9.63788862 C24.9144039,9.63788862 24.7707056,9.67452386 24.6417038,9.74763296 L17.7639448,13.6721228 Z" id="Shape" fill="#75AC64"></path>
                    <path d="M67.0511139,17.0285044 C67.3074267,16.881121 67.4652203,16.6089294 67.4652203,16.3154526 L67.4652203,14.4036611 C67.4652203,14.1095393 67.3072639,13.8381539 67.0504625,13.6901255 L60.1948263,9.74915179 C59.935908,9.6008009 59.6183667,9.6008009 59.3594483,9.74915179 L52.4614733,13.691738 C52.202555,13.8400889 52.0445986,14.1109906 52.0445986,14.4060798 L52.0445986,22.2912524 C52.0445986,22.5879541 52.2058118,22.8620808 52.4647302,23.0088192 L59.3187379,26.87723 C59.5711426,27.0207434 59.8805418,27.0223559 60.1362033,26.8820675 L64.2821534,24.6003663 C64.4124267,24.5278033 64.495476,24.39074 64.495476,24.2423891 C64.495476,24.0940382 64.4156836,23.9553624 64.2854102,23.8827994 L57.3450963,19.9386007 C57.214823,19.8660377 57.1350305,19.7289744 57.1350305,19.582236 L57.1350305,17.1086461 C57.1350305,16.9609402 57.2131946,16.8248444 57.3434679,16.751314 L59.5027491,15.517744 C59.631394,15.4435686 59.7893505,15.4435686 59.9179954,15.517744 L62.078905,16.751314 C62.2075499,16.8238769 62.2873424,16.9609402 62.2873424,17.1076786 L62.2873424,19.0523653 C62.2873424,19.1991037 62.3671348,19.3361671 62.4957798,19.4103425 C62.6244247,19.4829054 62.7840096,19.4829054 62.9126545,19.40873 L67.0511139,17.0285044 Z" id="Path" fill="#2A3128"></path>
                    <path d="M15.4206218,14.2916965 C15.4206218,14.0012775 15.263063,13.7345338 15.0051213,13.5901135 L8.12516162,9.74363905 C8.00902291,9.67734773 7.87891507,9.64262371 7.74702047,9.63788862 L7.67587536,9.63788862 C7.54398077,9.64262371 7.41387293,9.67734773 7.29578504,9.74363905 L0.416150175,13.5901135 C0.159832854,13.735323 0,14.0020666 0,14.2924857 L0.0151061539,24.6528707 C0.0151061539,24.7965019 0.0914490822,24.9306629 0.221394492,25.0016893 C0.348091267,25.0774508 0.507274394,25.0774508 0.633971169,25.0016893 L4.72400295,22.7256876 C4.98226945,22.5763743 5.13982826,22.3124717 5.13982826,22.0248937 L5.13982826,17.1848388 C5.13982826,16.8959981 5.29738707,16.6292545 5.55484141,16.4856233 L7.2961099,15.511141 C7.42540559,15.4385362 7.56737095,15.4025495 7.71193521,15.4025495 C7.85422544,15.4025495 7.99943943,15.4382206 8.12516162,15.5109832 L9.86561795,16.4851498 C10.1232347,16.6287809 10.2814433,16.8955246 10.2814433,17.1843653 L10.2814433,22.0241045 C10.2814433,22.3113669 10.4411137,22.5765321 10.6980807,22.7248984 L14.7855136,24.9993217 C14.9138347,25.0735049 15.0735051,25.0735049 15.2013389,24.9993217 C15.327386,24.9282953 15.4073024,24.7941343 15.4073024,24.6505032 L15.4206218,14.2916965 Z" id="Path" fill="#2A3128"></path>
                    <path d="M59.6792622,16.8510571 C59.7258144,16.8243406 59.7841597,16.8243406 59.8313325,16.8510571 L61.0928955,17.5589693 C61.1400683,17.5855348 61.1689307,17.6344397 61.1689307,17.6872689 L61.1689307,19.1046027 C61.1689307,19.157432 61.1400683,19.2063368 61.0928955,19.2329023 L59.8313325,19.9408145 C59.7841597,19.967531 59.7258144,19.967531 59.6792622,19.9408145 L58.4184751,19.2329023 C58.3703713,19.2063368 58.3408882,19.157432 58.3408882,19.1046027 L58.3408882,17.6872689 C58.3408882,17.6344397 58.3688195,17.5855348 58.4169234,17.5589693 L59.6792622,16.8510571 Z" id="Shape" fill="#6CA55F"></path>
                </g>
            </g>
        </g>
    </g>
</svg>