<?xml version="1.0" encoding="UTF-8"?>
<svg width="88px" height="60px" viewBox="0 0 88 60" version="1.1" xmlns="http://www.w3.org/2000/svg" xmlns:xlink="http://www.w3.org/1999/xlink">
    <!-- Generator: Sketch 50 (54983) - http://www.bohemiancoding.com/sketch -->
    <title>javascript</title>
    <desc>Created with Sketch.</desc>
    <defs></defs>
    <g id="Page-1" stroke="none" stroke-width="1" fill="none" fill-rule="evenodd">
        <g id="Artboard-Copy" transform="translate(-436.000000, -10.000000)" fill-rule="nonzero">
            <g id="Group-11" transform="translate(462.500000, 19.000000)">
                <path d="M1.15012255,0.062 L33.7637691,0.062 C34.3160538,0.062 34.7637691,0.50971525 34.7637691,1.062 C34.7637691,1.09167812 34.7624479,1.12134152 34.7598094,1.15090213 L31.7485663,34.8882247 C31.7115291,35.3031808 31.4211141,35.6517017 31.0196465,35.7629857 L17.7042649,39.453916 C17.5293888,39.5023905 17.3446183,39.5023648 17.1697557,39.4538417 L3.89117416,35.7691358 C3.48980082,35.6577577 3.19950395,35.3092452 3.16251362,34.8943508 L0.154073407,1.15080377 C0.105028437,0.600701023 0.511216024,0.114995829 1.06131877,0.0659508597 C1.09084684,0.0633182553 1.12047736,0.062 1.15012255,0.062 Z" id="Shape" fill="#D5BA31"></path>
                <polygon id="Shape" fill="#FFDA3E" points="28.972 33.317 31.682 2.967 17.457 2.967 17.457 36.509 28.972 33.316"></polygon>
                <polyline id="Shape" fill="#ECECE9" points="17.457 27.455 17.437 27.46 12.587 26.15 12.277 22.676 7.9 22.676 8.51 29.516 17.435 31.994 17.455 31.988 17.455 27.455"></polyline>
                <polygon id="Shape" fill="#FFFFFF" points="23.67 10.29 22.3 26.15 17.442 27.46 17.442 31.993 26.372 29.519 28.372 7.359 23.669 10.294"></polygon>
                <polygon id="Shape" fill="#FFFFFF" points="17.417 11.644 27.969 11.66 28.055 10.68 28.255 8.473 28.358 7.303 17.416 7.303 17.416 11.643"></polygon>
                <polygon id="Shape" fill="#EBEBE9" points="6.992 11.627 6.592 7.304 17.457 7.304 17.457 11.644 6.992 11.627"></polygon>
            </g>
        </g>
    </g>
</svg>