<svg height="60" viewBox="0 0 88 60" width="88" xmlns="http://www.w3.org/2000/svg">
<g fill="none" transform="translate(19 11.5)"><path d="m28.2937471 10.1885437-1.6993182 2.9425394-5.8115144-10.06593717-17.8403751 30.89666857h12.0791256c0 1.6251207 1.3174213 2.9425394 2.9425407 2.9425394h-15.02166506c-1.05116798 0-2.02239454-.5611266-2.54789101-1.4715142-.52549647-.9103888-.52544309-2.0319582.00014152-2.9422961l17.84037385-30.89666737c.5256207-.91047199 1.4970595-1.47135287 2.5483628-1.47135287 1.0513008 0 2.0227396.56088088 2.5483615 1.47135287z" fill="#7cc3fa"/><path d="m29.993064 13.1310844-1.6993182-2.9425394-1.6993156 2.9425394-11.177974 19.3594592c-.5255834.9103379-.5256368 2.0319073-.0001403 2.9422961.5254952.9103876 1.496723 1.4715142 2.547891 1.4715142h20.6566298c1.0513852 0 2.023014-.5605159 2.5488096-1.4709841.5257944-.9104683.5258577-2.0322983.0001639-2.942825zm-12.0288596 20.8307301 10.3295439-17.8881907 10.3270884 17.8881907z" fill="#1664a0"/><path d="m49.1649364 35.4330842c-.5255325.9102498-1.4966821 1.4712697-2.5477482 1.4712697h-7.996354c1.6251206 0 2.9425394-1.3174187 2.9425394-2.9425394h5.0476821l-14.3228105-24.80683715-2.2951825 3.97610705-1.6993156-2.9425394 1.4467474-2.50483734c.5256218-.910472 1.4970594-1.47135287 2.5483627-1.47135287 1.051302 0 2.0227396.56088087 2.5483615 1.47135287l14.3277165 24.80683714c.5256342.9104249.5256342 2.0321146 0 2.9425394z" fill="#7db4dd"/></g></svg>
